# xmcd
#
# Track frame offsets:
#	150
#	16919
#	34613
#	51005
#	66577
#	78033
#	90570
#	99802
#	109499
#	125154
#	140337
#	154007
#	167205
#	180399
#
# Disc length: 2616 seconds
#
# Revision: 1
# Processed by: cddbd v1.5PL3 Copyright (c) Steve Scherf et al.
# Submitted via: audiograbber 1.81.02
#
DISCID=ae0a360e
DTITLE=Diversos - Encontros Sertanejos Vol 5
DYEAR=2002
DGENRE=Country
TTITLE0=Índia
TTITLE1=Mágoa De Boiadeiro 
TTITLE2=Iambúchitão Chororó
TTITLE3=Piracicaba
TTITLE4=Quebradas Da Noite
TTITLE5=Mulher Mal Amada
TTITLE6=Estrada Da Vida
TTITLE7=Não Beba Mais Não
TTITLE8=Terra Altaneira
TTITLE9=No Colo Da Noite
TTITLE10=Homem De Pedra
TTITLE11=Copo De Cerveja
TTITLE12=Pingo D´Água 
TTITLE13=Paineira Velha
EXTD=
EXTT0=
EXTT1=
EXTT2=
EXTT3=
EXTT4=
EXTT5=
EXTT6=
EXTT7=
EXTT8=
EXTT9=
EXTT10=
EXTT11=
EXTT12=
EXTT13=
PLAYORDER=
